<?xml version="1.0" encoding="UTF-8" standalone="no" ?>
<!DOCTYPE svg PUBLIC "-//W3C//DTD SVG 1.1//EN" "http://www.w3.org/Graphics/SVG/1.1/DTD/svg11.dtd">
<svg xmlns="http://www.w3.org/2000/svg" xmlns:xlink="http://www.w3.org/1999/xlink" version="1.1" width="500" height="500" viewBox="0 0 500 500" xml:space="preserve">
<desc>Created with Fabric.js 4.6.0</desc>
<defs>
</defs>
<g transform="matrix(1 0 0 1 135.82 316)" id="4trPzcf36WvjuRtNNA7P-"  >
<path style="stroke: none; stroke-width: 1; stroke-dasharray: none; stroke-linecap: butt; stroke-dashoffset: 0; stroke-linejoin: miter; stroke-miterlimit: 4; fill: none; fill-rule: nonzero; opacity: 1;" vector-effect="non-scaling-stroke"  transform=" translate(-141.82, -322)" d="M 179.9 388 L 179.9 388 L 103.74000000000001 256 z" stroke-linecap="round" />
</g>
<g transform="matrix(1 0 0 1 250 250)" id="I_Dakf5MrpzkdbOJk_jEV"  >
<path style="stroke: none; stroke-width: 1; stroke-dasharray: none; stroke-linecap: butt; stroke-dashoffset: 0; stroke-linejoin: miter; stroke-miterlimit: 4; fill: none; fill-rule: nonzero; opacity: 1;" vector-effect="non-scaling-stroke"  transform=" translate(-256, -256)" d="M 179.9 388 L 332.11 388 L 408.26 256 L 332.11 124 L 179.9 124 L 103.74000000000001 256 z" stroke-linecap="round" />
</g>
<g transform="matrix(1 0 0 1 135.82 184)" id="EIBxsZ_lrrRuvk4rCwxiP"  >
<path style="stroke: none; stroke-width: 1; stroke-dasharray: none; stroke-linecap: butt; stroke-dashoffset: 0; stroke-linejoin: miter; stroke-miterlimit: 4; fill: none; fill-rule: nonzero; opacity: 1;" vector-effect="non-scaling-stroke"  transform=" translate(-141.82, -190)" d="M 103.74 256 L 179.89999999999998 124 L 179.89999999999998 124 z" stroke-linecap="round" />
</g>
<g transform="matrix(1 0 0 1 345.95 250)" id="nG5Jv_cAtiH3Z57Io4nL_"  >
<path style="stroke: none; stroke-width: 1; stroke-dasharray: none; stroke-linecap: butt; stroke-dashoffset: 0; stroke-linejoin: miter; stroke-miterlimit: 4; fill: rgb(0,0,0); fill-rule: nonzero; opacity: 1;" vector-effect="non-scaling-stroke"  transform=" translate(0, 0)" d="M 150.05 0 L 30.05000000000001 -208 L -106.20999999999998 -208 L -150.04999999999998 -132 L -13.839999999999975 -132 L 62.31000000000003 0 L -13.839999999999975 132 L -150.04999999999998 132 L -106.20999999999998 208 L 30.05000000000001 208 z" stroke-linecap="round" />
</g>
<g transform="matrix(1 0 0 1 107.87 250)" id="6OfrvMcLQlwaM6pKDq253"  >
<path style="stroke: none; stroke-width: 1; stroke-dasharray: none; stroke-linecap: butt; stroke-dashoffset: 0; stroke-linejoin: miter; stroke-miterlimit: 4; fill: rgb(0,0,0); fill-rule: nonzero; opacity: 1;" vector-effect="non-scaling-stroke"  transform=" translate(-119.87, -256)" d="M 179.9 388 L 103.74000000000001 256 L 179.9 124 L 179.9 124 L 223.74 48 L 136 48 L 16 256 L 136 464 L 223.74 464 L 179.9 388 z" stroke-linecap="round" />
</g>
</svg>