<?xml version="1.0" encoding="utf-8"?>
<svg viewBox="0 0 512 512" xmlns="http://www.w3.org/2000/svg">
  <rect x="0" width="512" height="512" style="fill: rgb(0, 0, 0); fill-opacity: 0;"/>
  <circle style="fill: rgb(255, 255, 255);" cx="256" cy="256" r="219.145"/>
  <path d="M 255.969 392.097 L 316.668 375.595 L 324.859 286.539 L 216.891 286.539 L 214.215 256.923 L 327.551 256.923 L 330.529 227.874 L 181.404 227.874 L 189.764 315.619 L 292.509 315.619 L 289.08 353.271 L 255.969 362.033 L 222.857 353.271 L 220.782 329.041 L 190.954 329.041 L 195.278 375.607 L 255.969 392.097 Z M 137.718 179.539 L 374.218 179.539 L 352.893 416.04 L 255.969 442.315 L 159.042 416.04 L 137.718 179.539 Z" style=""/>
  <text style="fill: rgb(81, 165, 236); font-family: Arial, sans-serif; font-size: 102.1px; font-weight: 800; stroke: rgb(255, 255, 255); stroke-linejoin: round; stroke-miterlimit: 50; stroke-width: 0px; white-space: pre;" x="111.275" y="165.258">&lt;      &gt;</text>
  <text style="fill: rgb(81, 165, 236); font-family: Arial, sans-serif; font-size: 154.5px; font-weight: 800; stroke: rgb(255, 255, 255); stroke-linejoin: round; stroke-miterlimit: 50; stroke-width: 0px; text-anchor: middle; white-space: pre;" transform="matrix(0.223939, 0, 0, 0.223939, 230.374802, 89.68203)" x="114.29100036621094" y="51.07500076293945">CUSTOM<tspan x="114.29100036621094" dy="1em">​</tspan>DATA<tspan x="114.29100036621094" dy="1em">​</tspan>LOADER</text>
  <g transform="matrix(3.798959, 0, 0, 3.798959, 264.115051, 273.273682)" style="">
    <path d="m18.623 4.2559c-7.9132 0-14.367 6.454-14.367 14.367 0 7.9132 6.454 14.367 14.367 14.367 3.2414 0 6.2283-1.0954 8.6367-2.918a2.0002 2.0002 0 0 0 0.15039 0.16602l14.898 14.898a2.0002 2.0002 0 1 0 2.8281 -2.8281l-14.898-14.898a2.0002 2.0002 0 0 0 -0.16602 -0.15039c1.8225-2.4084 2.918-5.3953 2.918-8.6367 0-7.9132-6.454-14.367-14.367-14.367zm0 3.5898c5.9732 0 10.777 4.8042 10.777 10.777 0 5.9732-4.8042 10.777-10.777 10.777s-10.777-4.8042-10.777-10.777c2e-7 -5.9732 4.8042-10.777 10.777-10.777z" color="#000000" color-rendering="auto" image-rendering="auto" shape-rendering="auto" solid-color="#000000" style="isolation: auto; mix-blend-mode: normal; text-decoration-color: rgb(0, 0, 0); text-decoration-line: none; text-decoration-style: solid; text-indent: 0px; text-transform: none; white-space: normal; fill: rgb(81, 165, 236); stroke: rgb(81, 165, 236); stroke-width: 1.57938px;"/>
  </g>
</svg>