<?xml version="1.0" encoding="UTF-8" standalone="no" ?>
<!DOCTYPE svg PUBLIC "-//W3C//DTD SVG 1.1//EN" "http://www.w3.org/Graphics/SVG/1.1/DTD/svg11.dtd">
<svg xmlns="http://www.w3.org/2000/svg" xmlns:xlink="http://www.w3.org/1999/xlink" version="1.1" width="500" height="500" viewBox="0 0 500 500" xml:space="preserve">
<desc>Created with Fabric.js 4.6.0</desc>
<defs>
</defs>
<g transform="matrix(1 0 0 1 135.82 316)" id="sLxSBlgp2PyCXLu07zMGD"  >
<path style="stroke: none; stroke-width: 1; stroke-dasharray: none; stroke-linecap: butt; stroke-dashoffset: 0; stroke-linejoin: miter; stroke-miterlimit: 4; fill: none; fill-rule: nonzero; opacity: 1;" vector-effect="non-scaling-stroke"  transform=" translate(-141.82, -322)" d="M 179.9 388 L 179.9 388 L 103.74000000000001 256 z" stroke-linecap="round" />
</g>
<g transform="matrix(1 0 0 1 250 250)" id="LxJhuIKxRjYyX9OkfNzYs"  >
<path style="stroke: none; stroke-width: 1; stroke-dasharray: none; stroke-linecap: butt; stroke-dashoffset: 0; stroke-linejoin: miter; stroke-miterlimit: 4; fill: none; fill-rule: nonzero; opacity: 1;" vector-effect="non-scaling-stroke"  transform=" translate(-256, -256)" d="M 179.9 388 L 332.11 388 L 408.26 256 L 332.11 124 L 179.9 124 L 103.74000000000001 256 z" stroke-linecap="round" />
</g>
<g transform="matrix(1 0 0 1 135.82 184)" id="cvN_2Rlw4pYNSnwapAuaK"  >
<path style="stroke: none; stroke-width: 1; stroke-dasharray: none; stroke-linecap: butt; stroke-dashoffset: 0; stroke-linejoin: miter; stroke-miterlimit: 4; fill: none; fill-rule: nonzero; opacity: 1;" vector-effect="non-scaling-stroke"  transform=" translate(-141.82, -190)" d="M 103.74 256 L 179.89999999999998 124 L 179.89999999999998 124 z" stroke-linecap="round" />
</g>
<g transform="matrix(1 0 0 1 249.75 250)" id="EGItLCdoNxU9jE46sfJEh"  >
<path style="stroke: none; stroke-width: 1; stroke-dasharray: none; stroke-linecap: butt; stroke-dashoffset: 0; stroke-linejoin: miter; stroke-miterlimit: 4; fill: rgb(0,177,245); fill-rule: nonzero; opacity: 1;" vector-effect="non-scaling-stroke"  transform=" translate(0, 0)" d="M 240.25 0 L 120.25 -208 L -119.41588999999999 -208 L -240.25 0.5 L -119.41589 208 L 120.24999999999999 208 z" stroke-linecap="round" />
</g>
<g transform="matrix(1 0 0 1 339.95 250)" id="9QvvK_d3ov46FwrwO3X0i"  >
<path style="stroke: none; stroke-width: 1; stroke-dasharray: none; stroke-linecap: butt; stroke-dashoffset: 0; stroke-linejoin: miter; stroke-miterlimit: 4; fill: rgb(0,0,0); fill-rule: nonzero; opacity: 1;" vector-effect="non-scaling-stroke"  transform=" translate(0, 0)" d="M 150.05 0 L 30.05000000000001 -208 L -106.20999999999998 -208 L -150.04999999999998 -132 L -13.839999999999975 -132 L 62.31000000000003 0 L -13.839999999999975 132 L -150.04999999999998 132 L -106.20999999999998 208 L 30.05000000000001 208 z" stroke-linecap="round" />
</g>
<g transform="matrix(1 0 0 1 113.87 250)" id="21luEPxK1t-_QvEF3Ut03"  >
<path style="stroke: none; stroke-width: 1; stroke-dasharray: none; stroke-linecap: butt; stroke-dashoffset: 0; stroke-linejoin: miter; stroke-miterlimit: 4; fill: rgb(0,0,0); fill-rule: nonzero; opacity: 1;" vector-effect="non-scaling-stroke"  transform=" translate(-119.87, -256)" d="M 179.9 388 L 103.74000000000001 256 L 179.9 124 L 179.9 124 L 223.74 48 L 136 48 L 16 256 L 136 464 L 223.74 464 L 179.9 388 z" stroke-linecap="round" />
</g>
<g transform="matrix(0.77 0 0 0.77 250 217.78)" style="" id="Y2dihl_hirPOmhTRUrAip"  >
		<text xml:space="preserve" font-family="Roboto Mono" font-size="61" font-style="normal" font-weight="700" line-height="1.16" style="stroke: none; stroke-width: 1; stroke-dasharray: none; stroke-linecap: butt; stroke-dashoffset: 0; stroke-linejoin: miter; stroke-miterlimit: 4; fill: rgb(255,255,255); fill-rule: nonzero; opacity: 1; white-space: pre;" ><tspan x="-109.82" y="-20.82" >CUSTOM</tspan><tspan x="-128.12" y="59.14" >ELEMENT</tspan></text>
</g>
<g transform="matrix(0.93 0 0 0.93 248.78 307.35)" style="" id="PuVaaUWhVJNCozlObSzuj"  >
		<text xml:space="preserve" font-family="Roboto Mono" font-size="46" font-style="normal" font-weight="normal" line-height="1.16" style="stroke: none; stroke-width: 1; stroke-dasharray: none; stroke-linecap: butt; stroke-dashoffset: 0; stroke-linejoin: miter; stroke-miterlimit: 4; fill: rgb(0,0,0); fill-rule: nonzero; opacity: 1; white-space: pre;" ><tspan x="-96.62" y="14.45" >SCANNER</tspan></text>
</g>
</svg>